<svg width="32" height="32" viewBox="0 0 32 32" fill="none" xmlns="http://www.w3.org/2000/svg">
<path d="M16 32C24.8366 32 32 24.8366 32 16C32 7.16344 24.8366 0 16 0C7.16344 0 0 7.16344 0 16C0 24.8366 7.16344 32 16 32Z" fill="#3379E4"/>
<path d="M19.537 13.8109H17.049V11.9959C17.049 11.4399 17.625 11.3099 17.894 11.3099H19.501V8.8599L17.659 8.8499C17.2514 8.81066 16.8401 8.8606 16.4537 8.99625C16.0673 9.13191 15.7151 9.35001 15.4215 9.63546C15.1278 9.9209 14.8998 10.2668 14.7533 10.6492C14.6068 11.0316 14.5453 11.4413 14.573 11.8499V13.8129H12.75V16.3379H14.571V23.1499H17.048V16.3349H19.148L19.537 13.8109Z" fill="white"/>
</svg>
